<svg id="Layer_1" data-name="Layer 1" xmlns="http://www.w3.org/2000/svg" viewBox="0 0 49.32 49.36"><defs><style>.cls-1{fill:#0096fa;}.cls-2{fill:#1fa3fa;}.cls-3{fill:#9fd7fd;}.cls-4{fill:#fdfeff;}.cls-5{fill:#7fcbfd;}.cls-6{fill:#0196fa;}</style></defs><title>pixiv</title><path class="cls-1" d="M10,.54H40a.74.74,0,0,0,.51,0l.13,0,.19,0,.18,0,.21,0,.12,0,.09,0,.13,0,.12,0,.12,0,.11,0H42l.11,0,.62.18.12,0,.48.19.12.05.11,0,.12.05,1.18.63.11.07a10.16,10.16,0,0,1,4.67,7.6v.42c0,.08,0,.17,0,.25V29.59c0,.11,0,.22,0,.33s0,.12,0,.18V36c0,.07,0,.14,0,.21s0,.2,0,.3V40c0,.12,0,.24,0,.36v.37c0,.35-.08.7-.16,1a10.21,10.21,0,0,1-9,8.06l-.32,0H40a2.23,2.23,0,0,0-.36,0H10.11l-.15,0H9.78l-.28,0a9.59,9.59,0,0,1-2-.41,10.23,10.23,0,0,1-7.08-8.7l0-.47a1.09,1.09,0,0,0,0-.18V10.17l0-.47c.08-.43.13-.85.22-1.27A10,10,0,0,1,2.82,4.07,10.11,10.11,0,0,1,6.34,1.44l.21-.1.12-.05.11-.05.49-.17.1,0L7.73.93l.1,0,.09,0,.1,0,.08,0,.1,0,.09,0,.16,0,.08,0,.13,0,.13,0L9,.65h.12l.19,0,.23,0ZM6.9,18.92l.14.23,2,3.14c.14.22.2.24.44.14a.92.92,0,0,0,.21-.13.85.85,0,0,0,.25-.58,2.86,2.86,0,0,0-.13-1,.39.39,0,0,1,.05-.35c.22-.34.43-.69.68-1a15.16,15.16,0,0,1,2.91-2.86l.13-.08V40l-.38.13a2.81,2.81,0,0,0-.86.4,1.54,1.54,0,0,0-.28.29.51.51,0,0,0,0,.57.44.44,0,0,0,.43.23h6a.86.86,0,0,0,.16,0,.3.3,0,0,0,.14-.06.59.59,0,0,0,.06-.85,1.53,1.53,0,0,0-.38-.29c-.27-.13-.55-.24-.83-.35s-.21-.07-.21-.29V34.72c0-.09,0-.18,0-.28l.26.08a27.72,27.72,0,0,0,3.26.95,27.18,27.18,0,0,0,4,.62A21,21,0,0,0,29.4,36a17.27,17.27,0,0,0,4.82-1.38,14.17,14.17,0,0,0,4.32-3A11.58,11.58,0,0,0,42,23.23a12.52,12.52,0,0,0-1.43-5.85,12.83,12.83,0,0,0-3.7-4.32,15.79,15.79,0,0,0-6.45-2.8,20.51,20.51,0,0,0-4.35-.36,23.71,23.71,0,0,0-3.36.31,25.6,25.6,0,0,0-6.1,1.86,31.38,31.38,0,0,0-9.38,6.49Z" transform="translate(-0.34 -0.54)"/><path class="cls-2" d="M10,49.9l.15,0H39.67a2.23,2.23,0,0,1,.36,0Z" transform="translate(-0.34 -0.54)"/><path class="cls-3" d="M9.5,49.9v0l.28,0Z" transform="translate(-0.34 -0.54)"/><path class="cls-4" d="M6.9,18.92l.34-.36a31.38,31.38,0,0,1,9.38-6.49,25.6,25.6,0,0,1,6.1-1.86,23.71,23.71,0,0,1,3.36-.31,20.51,20.51,0,0,1,4.35.36,15.79,15.79,0,0,1,6.45,2.8,12.83,12.83,0,0,1,3.7,4.32A12.52,12.52,0,0,1,42,23.23a11.58,11.58,0,0,1-3.47,8.38,14.17,14.17,0,0,1-4.32,3A17.27,17.27,0,0,1,29.4,36a21,21,0,0,1-4.48.13,27.18,27.18,0,0,1-4-.62,27.72,27.72,0,0,1-3.26-.95l-.26-.08c0,.1,0,.19,0,.28v5.06c0,.22,0,.21.21.29s.56.22.83.35a1.53,1.53,0,0,1,.38.29.59.59,0,0,1-.06.85.3.3,0,0,1-.14.06.86.86,0,0,1-.16,0h-6a.44.44,0,0,1-.43-.23.51.51,0,0,1,0-.57,1.54,1.54,0,0,1,.28-.29,2.81,2.81,0,0,1,.86-.4l.38-.13V16.36l-.13.08a15.16,15.16,0,0,0-2.91,2.86c-.25.33-.46.68-.68,1a.39.39,0,0,0-.05.35,2.86,2.86,0,0,1,.13,1,.85.85,0,0,1-.25.58.92.92,0,0,1-.21.13c-.24.1-.3.08-.44-.14L7,19.15ZM17.38,32.21l.21.11a14.83,14.83,0,0,0,3,1,20.45,20.45,0,0,0,2.6.44,24.75,24.75,0,0,0,3.55.15,11.92,11.92,0,0,0,3.68-.73,10.47,10.47,0,0,0,4.43-3.07,10,10,0,0,0,2.28-4.86,12.29,12.29,0,0,0,.14-3,11.61,11.61,0,0,0-1.4-4.94,10.13,10.13,0,0,0-5.65-4.78,12.11,12.11,0,0,0-4.74-.65,17.87,17.87,0,0,0-4.62.87,13.44,13.44,0,0,0-3.19,1.49c-.35.22-.28.14-.28.51V32.21Z" transform="translate(-0.34 -0.54)"/><path class="cls-3" d="M9.08.64l.19,0Z" transform="translate(-0.34 -0.54)"/><path class="cls-5" d="M40.67.61l.19,0Z" transform="translate(-0.34 -0.54)"/><path class="cls-5" d="M41,.65l.21,0Z" transform="translate(-0.34 -0.54)"/><path class="cls-3" d="M6.34,1.44l.21-.1Z" transform="translate(-0.34 -0.54)"/><path class="cls-3" d="M8.29.79l.16,0Z" transform="translate(-0.34 -0.54)"/><path class="cls-3" d="M8.53.73l.13,0Z" transform="translate(-0.34 -0.54)"/><path class="cls-3" d="M8.79.69,9,.65Z" transform="translate(-0.34 -0.54)"/><path class="cls-5" d="M44.88,2.07l.11.07Z" transform="translate(-0.34 -0.54)"/><path class="cls-3" d="M7.27,1.07l.1,0Z" transform="translate(-0.34 -0.54)"/><path class="cls-3" d="M7.73.93l.1,0Z" transform="translate(-0.34 -0.54)"/><path class="cls-5" d="M42,.85l.11,0Z" transform="translate(-0.34 -0.54)"/><path class="cls-3" d="M7.92.88l.1,0Z" transform="translate(-0.34 -0.54)"/><path class="cls-5" d="M41.83.81l.11,0Z" transform="translate(-0.34 -0.54)"/><path class="cls-3" d="M8.1.83l.1,0Z" transform="translate(-0.34 -0.54)"/><path class="cls-5" d="M41.59.75l.12,0Z" transform="translate(-0.34 -0.54)"/><path class="cls-5" d="M41.37.71l.09,0Z" transform="translate(-0.34 -0.54)"/><path class="cls-5" d="M43.35,1.29l.12.05Z" transform="translate(-0.34 -0.54)"/><path class="cls-5" d="M42.75,1.07l.12,0Z" transform="translate(-0.34 -0.54)"/><path class="cls-5" d="M43.58,1.39l.12.05Z" transform="translate(-0.34 -0.54)"/><path class="cls-3" d="M6.67,1.29l.11-.05Z" transform="translate(-0.34 -0.54)"/><path class="cls-6" d="M17.38,32.21V14.79c0-.37-.07-.29.28-.51a13.44,13.44,0,0,1,3.19-1.49,17.87,17.87,0,0,1,4.62-.87,12.11,12.11,0,0,1,4.74.65,10.13,10.13,0,0,1,5.65,4.78,11.61,11.61,0,0,1,1.4,4.94,12.29,12.29,0,0,1-.14,3,10,10,0,0,1-2.28,4.86,10.47,10.47,0,0,1-4.43,3.07,11.92,11.92,0,0,1-3.68.73,24.75,24.75,0,0,1-3.55-.15,20.45,20.45,0,0,1-2.6-.44,14.83,14.83,0,0,1-3-1Z" transform="translate(-0.34 -0.54)"/></svg>