<svg id="Layer_1" data-name="Layer 1" xmlns="http://www.w3.org/2000/svg" viewBox="0 0 44.89 42.63"><defs><style>.cls-1{fill:#454545;}</style></defs><title>暦</title><path class="cls-1" d="M33.49,16.15H20.74v2.6c.84.23,1.69.43,2.51.7a4.12,4.12,0,0,1,2.69,2c.39.78.31,1.1-.4,1.73-.87,0-1.32-.61-1.77-1.24a6.43,6.43,0,0,0-3.05-2.38v8c-1.14,1.18-1.32,1.26-2.44,1.08V21c-1.1,1-2.21,2-3.35,3s-2.57,2.15-3.89,3.2a2,2,0,0,1-1.19.34c3.2-3.48,6.52-6.82,8.33-11.43H11.12L11,14.89h7.21V9.39c1.37.47,2.83.09,4,1.36l-1.5.76v3.31h2.56l2.22-2.41,3,2.4h4.83V9.45c1.4.35,2.83.05,4.1,1.29L36,11.48V14.8h4.81l2.22-2.42c1.21,1.15,2.79,1.72,3.77,3.4a9.16,9.16,0,0,1-1.47.29c-2.64,0-5.28,0-7.92,0H36a31,31,0,0,0,11.65,9L45,27.06A41.43,41.43,0,0,1,36,18v9.8L33.73,29.2a12.64,12.64,0,0,1-.32-1.75c0-2,0-4,0-6V20A60.63,60.63,0,0,1,23.12,28.1c-.1-.77.48-1.06.86-1.45,2.06-2.12,4.19-4.18,6.2-6.35C31.33,19.06,32.3,17.65,33.49,16.15Z" transform="translate(-2.78 -4.12)"/><path class="cls-1" d="M14.89,46.75c-.52-1.15-.69-15.7-.35-18.61a3,3,0,0,1,.65.28,7.57,7.57,0,0,0,4.65,1.13c5.28-.07,10.56,0,15.84,0H37L38.2,28c1.06.87,2.33,1.39,3.21,2.63l-1.3.74V44.7l-2.22,1.4L37.41,44H17.05L17,45.5ZM37.5,37.23H17.07v5.42H37.5ZM17.05,35.89H37.48V30.81H17.05Z" transform="translate(-2.78 -4.12)"/><path class="cls-1" d="M40.22,7.06,42.8,4.12c1.51,1.21,3.16,2,4.31,3.43l-.06.36a6.94,6.94,0,0,1-1.27.24c-1.83,0-3.67,0-5.51,0h-31V9.71c0,5.32,0,10.64,0,16A34,34,0,0,1,4.13,44c-.27.45-.44,1.06-1.35,1.07.2-.58.34-1.1.55-1.59A42.68,42.68,0,0,0,6.74,26c-.09-6.68,0-13.35,0-20,0-.16,0-.32,0-.57a5.41,5.41,0,0,1,.87.44A6.54,6.54,0,0,0,12,7C20.84,7,29.68,7,38.51,7H40Z" transform="translate(-2.78 -4.12)"/></svg>